<?xml version="1.0" encoding="utf-8"?>
<!-- Generator: Adobe Illustrator 16.0.0, SVG Export Plug-In . SVG Version: 6.00 Build 0)  -->
<!DOCTYPE svg PUBLIC "-//W3C//DTD SVG 1.1//EN" "http://www.w3.org/Graphics/SVG/1.1/DTD/svg11.dtd">
<svg version="1.1" id="Layer_1" xmlns="http://www.w3.org/2000/svg" xmlns:xlink="http://www.w3.org/1999/xlink" x="0px" y="0px"
	 width="36px" height="36px" viewBox="0 0 36 36" enable-background="new 0 0 36 36" xml:space="preserve">
<path fill="none" d="M36,0v36H0"/>
<g>
	<path d="M4.969,25.688v-21h16.5v5.25h3v-5.25c0-1.658-1.342-3-3-3h-16.5c-1.657,0-3,1.342-3,3v21c0,1.657,1.343,2.999,3,2.999
		h6.281v-2.999H4.969z"/>
</g>
<path d="M5.953,9.875h13.5v-3h-13.5"/>
<path d="M5.953,19.25h5.25v-3h-5.25"/>
<path d="M30.095,10.905H14.342c-1.456,0-2.625,1.182-2.625,2.625v18.376c0,1.443,1.169,2.625,2.625,2.625h18.376
	c1.443,0,2.625-1.182,2.625-2.625V16.155L30.095,10.905z M23.531,31.907c-2.18,0-3.938-1.758-3.938-3.938
	c0-2.179,1.759-3.938,3.938-3.938c2.179,0,3.938,1.759,3.938,3.938C27.469,30.149,25.71,31.907,23.531,31.907z M27.469,18.781
	H15.655v-5.25h11.813L27.469,18.781L27.469,18.781z"/>
<path d="M5.953,14.609h5.25v-3h-5.25"/>
<path d="M5.953,24.218h5.25v-3h-5.25"/>
</svg>
